<?xml version="1.0" standalone="no"?>
<!DOCTYPE svg PUBLIC "-//W3C//DTD SVG 20010904//EN"
 "http://www.w3.org/TR/2001/REC-SVG-20010904/DTD/svg10.dtd">
<svg version="1.0" xmlns="http://www.w3.org/2000/svg"
 width="138.000000pt" height="138.000000pt" viewBox="0 0 138.000000 138.000000"
 preserveAspectRatio="xMidYMid meet">
<metadata>
Created by potrace 1.11, written by Peter Selinger 2001-2013
</metadata>
<g transform="translate(0.000000,138.000000) scale(0.100000,-0.100000)"
fill="#000000" stroke="none">
<path d="M102 1119 c-26 -13 -55 -39 -70 -62 l-27 -40 -3 -320 c-3 -311 -2
-320 19 -364 15 -30 37 -55 67 -74 l46 -29 553 0 c524 0 556 1 591 19 42 22
63 43 86 88 14 27 16 76 16 344 0 294 -1 315 -20 355 -12 24 -39 54 -62 70
l-41 29 -556 3 c-552 2 -556 2 -599 -19z"/>
</g>
</svg>
